<?xml version="1.0" encoding="UTF-8" standalone="no"?><!DOCTYPE svg PUBLIC "-//W3C//DTD SVG 1.1//EN" "http://www.w3.org/Graphics/SVG/1.1/DTD/svg11.dtd"><svg width="100%" height="100%" viewBox="0 0 167 167" version="1.1" xmlns="http://www.w3.org/2000/svg" xmlns:xlink="http://www.w3.org/1999/xlink" xml:space="preserve" xmlns:serif="http://www.serif.com/" style="fill-rule:evenodd;clip-rule:evenodd;stroke-linejoin:round;stroke-miterlimit:2;"><g><rect x="0" y="0" width="166.667" height="166.667" style="fill:none;"/><g><g><path d="M65.58,41.699l0,-36.491c0,0 78.18,30.147 94.687,80.944c4.852,14.886 19.949,73.811 -87.387,73.811c-0,-0 60.594,0.746 60.138,-50.092c-0.415,-46.029 -47.737,-60.127 -67.438,-68.172Z" style="fill:url(#_Linear1);fill-rule:nonzero;"/></g><g><path d="M61.93,42.446l0,35.039c-43.797,2.903 -40.894,43.789 11.696,83.224c0,-0 -78.843,-26.29 -70.092,-74.474c8.751,-40.887 58.396,-43.789 58.396,-43.789Z" style="fill:url(#_Linear2);fill-rule:nonzero;"/></g></g></g><defs><linearGradient id="_Linear1" x1="0" y1="0" x2="1" y2="0" gradientUnits="userSpaceOnUse" gradientTransform="matrix(150.521,0.372898,-0.372967,150.493,7.91689,82.5857)"><stop offset="0" style="stop-color:#ff4773;stop-opacity:1"/><stop offset="0.28" style="stop-color:#744ca0;stop-opacity:1"/><stop offset="0.74" style="stop-color:#524dab;stop-opacity:1"/><stop offset="1" style="stop-color:#194fbe;stop-opacity:1"/></linearGradient><linearGradient id="_Linear2" x1="0" y1="0" x2="1" y2="0" gradientUnits="userSpaceOnUse" gradientTransform="matrix(150.521,0.372898,-0.372967,150.493,7.91689,82.5857)"><stop offset="0" style="stop-color:#ff4773;stop-opacity:1"/><stop offset="0.37" style="stop-color:#744ca0;stop-opacity:1"/><stop offset="0.6" style="stop-color:#524dab;stop-opacity:1"/><stop offset="1" style="stop-color:#194fbe;stop-opacity:1"/></linearGradient></defs></svg>