<?xml version="1.0" encoding="UTF-8" standalone="no"?><!DOCTYPE svg PUBLIC "-//W3C//DTD SVG 1.1//EN" "http://www.w3.org/Graphics/SVG/1.1/DTD/svg11.dtd"><svg width="100%" height="100%" viewBox="0 0 15726 2438" version="1.1" xmlns="http://www.w3.org/2000/svg" xmlns:xlink="http://www.w3.org/1999/xlink" xml:space="preserve" xmlns:serif="http://www.serif.com/" style="fill-rule:evenodd;clip-rule:evenodd;stroke-linecap:round;stroke-linejoin:bevel;stroke-miterlimit:1.5;"><rect id="Mesa-de-trabajo3" serif:id="Mesa de trabajo3" x="0" y="0" width="15725.4" height="2437.01" style="fill:none;"/><clipPath id="_clip1"><rect x="0" y="0" width="15725.4" height="2437.01"/></clipPath><g clip-path="url(#_clip1)"><g><g id="Mesa-de-trabajo2" serif:id="Mesa de trabajo2"><rect x="8.335" y="37.507" width="15216.5" height="2238.26" style="fill:none;"/><g><g id="Mesa-de-trabajo1" serif:id="Mesa de trabajo1"><rect x="70.701" y="49.975" width="21192.9" height="2169.97" style="fill:none;"/></g><g id="Capa_1"><g><rect x="318.935" y="258.694" width="7010.12" height="1752.53" style="fill:none;"/><g><g><path d="M1003.74,699.019l0,-385.555c0,0 825.878,318.523 1000.26,855.23c51.266,157.29 210.738,779.878 -923.146,779.878c-0,-0 640.111,7.883 635.297,-529.261c-4.379,-486.328 -504.289,-635.298 -712.408,-720.292Z" style="fill:url(#_Linear2);fill-rule:nonzero;"/></g><g><path d="M965.183,706.902l-0,370.225c-462.664,30.672 -431.992,462.665 123.549,879.328c0,-0 -832.888,-277.771 -740.435,-786.888c92.441,-431.993 616.886,-462.665 616.886,-462.665Z" style="fill:url(#_Linear3);fill-rule:nonzero;"/></g></g></g></g><g id="Capa_2"><g><path d="M2522.7,1744.53l167.207,-694.659" style="fill:none;stroke:#333;stroke-opacity:0.85;stroke-width:52.01px;"/></g><g><path d="M3280.6,963.593l287.937,0c75.526,0 142.571,15.592 201.134,46.776c58.55,31.183 104.115,74.316 136.683,129.412c32.569,55.095 48.859,117.637 48.859,187.625c-0,69.989 -16.29,132.531 -48.859,187.614c-32.568,55.095 -78.133,98.228 -136.683,129.412c-58.563,31.183 -125.608,46.775 -201.134,46.775l-287.937,0l0,-727.614Zm283.771,679.803c67.219,0 126.468,-13.334 177.746,-40.015c51.278,-26.68 90.781,-63.926 118.497,-111.749c27.729,-47.811 41.587,-102.557 41.587,-164.226c-0,-61.681 -13.858,-116.427 -41.587,-164.238c-27.716,-47.81 -67.219,-85.056 -118.497,-111.737c-51.278,-26.68 -110.527,-40.027 -177.746,-40.027l-230.759,-0l0,631.992l230.759,0Z" style="fill:#3f3f3f;fill-rule:nonzero;"/><path d="M4122.56,1148.61l51.977,-0l0,542.595l-51.977,0l0,-542.595Zm111.226,-211.001l74.84,-0l-163.189,122.651l-56.131,0l144.48,-122.651Z" style="fill:#3f3f3f;fill-rule:nonzero;"/><path d="M4576.8,1144.46c67.219,0 118.847,17.151 154.883,51.453c36.035,34.302 54.047,84.72 54.047,151.241l0,344.055l-49.894,0l0,-96.669c-17.325,31.882 -42.621,56.654 -75.876,74.329c-33.266,17.662 -73.106,26.506 -119.545,26.506c-60.284,0 -107.92,-14.207 -142.92,-42.622c-35.001,-28.414 -52.489,-65.835 -52.489,-112.261c0,-45.041 16.104,-81.601 48.335,-109.666c32.219,-28.066 83.672,-42.098 154.359,-42.098l186.053,-0l0,-43.657c0,-50.58 -13.683,-89.036 -41.05,-115.38c-27.379,-26.331 -67.394,-39.491 -120.057,-39.491c-36.035,0 -70.512,6.237 -103.429,18.711c-32.918,12.473 -60.808,29.1 -83.672,49.893l-25.995,-37.42c27.03,-24.261 59.599,-43.146 97.717,-56.654c38.107,-13.509 77.959,-20.27 119.533,-20.27Zm-29.1,508.293c45.041,0 83.322,-10.39 114.855,-31.183c31.533,-20.794 55.27,-50.929 71.198,-90.433l0,-101.87l-185.018,-0c-53.361,-0 -91.992,9.704 -115.903,29.113c-23.899,19.396 -35.861,46.076 -35.861,80.029c-0,35.35 13.172,63.241 39.503,83.685c26.332,20.444 63.403,30.659 111.226,30.659Z" style="fill:#3f3f3f;fill-rule:nonzero;"/><path d="M5366.78,1646.52l-0,44.692l-431.369,0l0,-35.337l357.576,-462.553l-352.374,-0l-0,-44.705l419.93,-0l-0,35.35l-358.611,462.553l364.848,-0Z" style="fill:#3f3f3f;fill-rule:nonzero;"/><path d="M6387.53,963.593l-324.309,727.614l-53.012,0l-324.309,-727.614l58.201,0l294.173,659.01l294.161,-659.01l55.095,0Z" style="fill:#3f3f3f;fill-rule:nonzero;"/><path d="M6629.72,1144.46c67.219,0 118.847,17.151 154.883,51.453c36.035,34.302 54.047,84.72 54.047,151.241l-0,344.055l-49.894,0l0,-96.669c-17.325,31.882 -42.609,56.654 -75.876,74.329c-33.266,17.662 -73.106,26.506 -119.532,26.506c-60.297,0 -107.933,-14.207 -142.933,-42.622c-34.988,-28.414 -52.489,-65.835 -52.489,-112.261c0,-45.041 16.116,-81.601 48.335,-109.666c32.219,-28.066 83.672,-42.098 154.359,-42.098l186.066,-0l-0,-43.657c-0,-50.58 -13.696,-89.036 -41.063,-115.38c-27.367,-26.331 -67.394,-39.491 -120.057,-39.491c-36.035,0 -70.512,6.237 -103.429,18.711c-32.918,12.473 -60.808,29.1 -83.672,49.893l-25.982,-37.42c27.017,-24.261 59.585,-43.146 97.704,-56.654c38.119,-13.509 77.959,-20.27 119.533,-20.27Zm-29.1,508.293c45.041,0 83.335,-10.39 114.855,-31.183c31.533,-20.794 55.27,-50.929 71.211,-90.433l-0,-101.87l-185.031,-0c-53.349,-0 -91.992,9.704 -115.891,29.113c-23.911,19.396 -35.861,46.076 -35.861,80.029c0,35.35 13.16,63.241 39.491,83.685c26.331,20.444 63.415,30.659 111.226,30.659Z" style="fill:#3f3f3f;fill-rule:nonzero;"/><rect x="7052.78" y="919.936" width="51.977" height="771.271" style="fill:#3f3f3f;"/><path d="M7806.36,919.936l0,771.271l-50.891,0l-0,-127.853c-21.579,42.273 -51.64,74.841 -90.433,97.717c-38.792,22.864 -82.823,34.302 -132.093,34.302c-50.518,0 -96.283,-11.787 -137.17,-35.35c-40.888,-23.55 -72.933,-56.13 -96.146,-97.704c-23.213,-41.574 -34.825,-89.048 -34.825,-142.41c-0,-53.349 11.612,-100.997 34.825,-142.92c23.213,-41.924 55.258,-74.492 96.146,-97.705c40.887,-23.213 86.652,-34.826 137.17,-34.826c48.521,0 92.054,11.438 130.472,34.302c38.418,22.864 68.853,54.746 90.931,95.634l0,-354.458l52.014,0Zm-270.299,728.662c41.661,-0 78.832,-9.705 111.762,-29.113c32.93,-19.397 58.875,-46.427 77.959,-81.078c19.084,-34.639 28.564,-74.142 28.564,-118.498c0,-44.343 -9.48,-83.846 -28.564,-118.497c-19.084,-34.639 -45.029,-61.669 -77.959,-81.078c-32.93,-19.396 -70.101,-29.1 -111.762,-29.1c-41.536,-0 -78.782,9.704 -111.699,29.1c-32.918,19.409 -58.912,46.439 -77.959,81.078c-19.06,34.651 -28.589,74.154 -28.589,118.497c-0,44.356 9.529,83.859 28.589,118.498c19.047,34.651 45.041,61.681 77.959,81.078c32.917,19.408 70.163,29.113 111.699,29.113Z" style="fill:#3f3f3f;fill-rule:nonzero;"/><path d="M8484.16,1432.38l-466.755,-0c1.372,42.272 12.224,79.867 32.306,112.785c20.082,32.917 47.274,58.388 81.576,76.4c34.302,18.024 72.97,27.03 115.878,27.03c35.3,-0 68.105,-6.412 98.291,-19.234c30.061,-12.823 55.257,-31.708 75.339,-56.655l30.061,34.302c-23.574,28.415 -53.136,50.243 -88.81,65.486c-35.674,15.255 -74.342,22.876 -115.879,22.876c-54.134,0 -102.282,-11.787 -144.567,-35.35c-42.285,-23.55 -75.339,-56.13 -99.163,-97.704c-23.949,-41.574 -35.924,-89.048 -35.924,-142.41c0,-52.662 11.226,-99.949 33.803,-141.885c22.452,-41.923 53.511,-74.666 93.052,-98.228c39.416,-23.55 83.821,-35.338 132.967,-35.338c49.27,0 93.426,11.613 132.592,34.826c39.167,23.213 69.976,55.607 92.553,97.181c22.452,41.586 33.678,88.711 33.678,141.374l-0.998,14.544Zm-257.825,-242.185c-38.044,0 -72.346,8.482 -102.906,25.459c-30.435,16.989 -54.883,40.888 -73.219,71.722c-18.336,30.847 -28.939,65.66 -31.683,104.465l415.74,0c-2.121,-38.805 -12.474,-73.443 -31.184,-103.941c-18.71,-30.485 -43.283,-54.397 -73.843,-71.722c-30.435,-17.326 -64.737,-25.983 -102.905,-25.983Z" style="fill:#3f3f3f;fill-rule:nonzero;"/><path d="M8696.21,1267.11c16.589,-39.491 42.659,-69.814 77.959,-90.944c35.299,-21.143 78.333,-31.708 128.85,-31.708l0,50.929l-12.473,-1.035c-60.247,0 -107.397,18.885 -141.324,56.654c-33.928,37.77 -50.892,90.258 -50.892,157.478l0,282.723l-52.014,0l-0,-542.595l49.894,-0l-0,118.498Z" style="fill:#3f3f3f;fill-rule:nonzero;"/><path d="M9096.36,1267.11c16.59,-39.491 42.659,-69.814 77.959,-90.944c35.3,-21.143 78.333,-31.708 128.851,-31.708l-0,50.929l-12.474,-1.035c-60.247,0 -107.396,18.885 -141.324,56.654c-33.928,37.77 -50.891,90.258 -50.891,157.478l-0,282.723l-52.015,0l0,-542.595l49.894,-0l0,118.498Z" style="fill:#3f3f3f;fill-rule:nonzero;"/><path d="M9629.6,1144.46c67.232,0 118.872,17.151 154.92,51.453c36.048,34.302 54.01,84.72 54.01,151.241l-0,344.055l-49.894,0l0,-96.669c-17.338,31.882 -42.659,56.654 -75.838,74.329c-33.304,17.662 -73.094,26.506 -119.62,26.506c-60.247,0 -107.895,-14.207 -142.821,-42.622c-35.05,-28.414 -52.513,-65.835 -52.513,-112.261c-0,-45.041 16.091,-81.601 48.272,-109.666c32.306,-28.066 83.697,-42.098 154.421,-42.098l185.979,-0l-0,-43.657c-0,-50.58 -13.596,-89.036 -41.038,-115.38c-27.317,-26.331 -67.356,-39.491 -119.994,-39.491c-36.048,0 -70.6,6.237 -103.405,18.711c-32.93,12.473 -60.87,29.1 -83.697,49.893l-26.069,-37.42c27.067,-24.261 59.623,-43.146 97.792,-56.654c38.044,-13.509 77.959,-20.27 119.495,-20.27Zm-29.063,508.293c45.029,0 83.323,-10.39 114.88,-31.183c31.433,-20.794 55.258,-50.929 71.099,-90.433l-0,-101.87l-184.981,-0c-53.386,-0 -91.929,9.704 -115.878,29.113c-23.949,19.396 -35.924,46.076 -35.924,80.029c0,35.35 13.222,63.241 39.541,83.685c26.319,20.444 63.365,30.659 111.263,30.659Z" style="fill:#3f3f3f;fill-rule:nonzero;"/><path d="M10728.3,1144.46c67.232,0 119.995,19.746 158.538,59.249c38.418,39.504 57.627,96.32 57.627,170.475l-0,317.025l-51.889,0l-0,-312.872c-0,-60.982 -14.969,-107.408 -44.78,-139.291c-29.812,-31.869 -71.348,-47.81 -124.734,-47.81c-60.995,-0 -109.268,19.059 -144.942,57.165c-35.674,38.119 -53.511,89.398 -53.511,153.848l0,288.96l-52.014,0l0,-312.872c0,-60.982 -14.843,-107.408 -44.655,-139.291c-29.811,-31.869 -71.472,-47.81 -124.734,-47.81c-60.995,-0 -109.392,19.059 -145.066,57.165c-35.674,38.119 -53.511,89.398 -53.511,153.848l0,288.96l-52.014,0l-0,-542.595l49.894,-0l-0,116.427c18.086,-38.119 44.904,-67.743 80.578,-88.873c35.674,-21.143 78.208,-31.708 127.354,-31.708c49.145,0 90.931,11.089 125.233,33.267c34.302,22.178 58.75,54.746 73.344,97.704c17.961,-40.189 46.151,-72.071 84.694,-95.633c38.418,-23.55 83.323,-35.338 134.588,-35.338Z" style="fill:#3f3f3f;fill-rule:nonzero;"/><path d="M11341.6,1144.46c67.232,0 118.872,17.151 154.92,51.453c36.048,34.302 54.01,84.72 54.01,151.241l-0,344.055l-49.894,0l0,-96.669c-17.338,31.882 -42.659,56.654 -75.838,74.329c-33.304,17.662 -73.095,26.506 -119.621,26.506c-60.246,0 -107.895,-14.207 -142.82,-42.622c-35.051,-28.414 -52.513,-65.835 -52.513,-112.261c-0,-45.041 16.09,-81.601 48.272,-109.666c32.306,-28.066 83.696,-42.098 154.421,-42.098l185.979,-0l-0,-43.657c-0,-50.58 -13.596,-89.036 -41.038,-115.38c-27.317,-26.331 -67.356,-39.491 -119.994,-39.491c-36.049,0 -70.6,6.237 -103.405,18.711c-32.93,12.473 -60.87,29.1 -83.697,49.893l-26.069,-37.42c27.067,-24.261 59.623,-43.146 97.791,-56.654c38.044,-13.509 77.959,-20.27 119.496,-20.27Zm-29.063,508.293c45.029,0 83.322,-10.39 114.88,-31.183c31.433,-20.794 55.257,-50.929 71.099,-90.433l-0,-101.87l-184.981,-0c-53.387,-0 -91.929,9.704 -115.878,29.113c-23.949,19.396 -35.924,46.076 -35.924,80.029c0,35.35 13.222,63.241 39.541,83.685c26.319,20.444 63.365,30.659 111.263,30.659Z" style="fill:#3f3f3f;fill-rule:nonzero;"/><path d="M12480.8,1315.97c52.014,9.705 91.68,30.149 118.996,61.332c27.442,31.184 41.038,71.722 41.038,121.616c-0,61.669 -22.452,109.143 -67.481,142.397c-45.029,33.267 -112.012,49.894 -200.698,49.894l-324.309,0l0,-727.614l303.603,0c78.957,0 140.451,16.116 184.482,48.335c44.032,32.219 65.985,78.134 65.985,137.732c-0,41.574 -10.977,76.574 -32.805,104.976c-21.829,28.415 -51.391,48.859 -88.811,61.332Zm-379.442,-306.635l0,290.008l248.471,0c63.739,0 112.76,-12.299 147.062,-36.909c34.302,-24.598 51.515,-60.808 51.515,-108.619c-0,-47.124 -17.213,-82.986 -51.515,-107.583c-34.302,-24.598 -83.323,-36.897 -147.062,-36.897l-248.471,0Zm271.297,636.146c70.725,0 124.236,-12.298 160.658,-36.909c36.298,-24.597 54.509,-62.529 54.509,-113.82c-0,-51.278 -18.211,-89.035 -54.509,-113.296c-36.422,-24.249 -89.933,-36.385 -160.658,-36.385l-271.297,-0l0,300.41l271.297,0Z" style="fill:#3f3f3f;fill-rule:nonzero;"/><path d="M13271.8,1432.38l-466.756,-0c1.372,42.272 12.224,79.867 32.306,112.785c20.082,32.917 47.274,58.388 81.576,76.4c34.302,18.024 72.97,27.03 115.879,27.03c35.299,-0 68.104,-6.412 98.29,-19.234c30.061,-12.823 55.257,-31.708 75.34,-56.655l30.061,34.302c-23.575,28.415 -53.137,50.243 -88.811,65.486c-35.674,15.255 -74.342,22.876 -115.878,22.876c-54.135,0 -102.282,-11.787 -144.567,-35.35c-42.285,-23.55 -75.34,-56.13 -99.164,-97.704c-23.949,-41.574 -35.924,-89.048 -35.924,-142.41c0,-52.662 11.227,-99.949 33.803,-141.885c22.453,-41.923 53.511,-74.666 93.052,-98.228c39.416,-23.55 83.822,-35.338 132.967,-35.338c49.27,0 93.426,11.613 132.592,34.826c39.167,23.213 69.976,55.607 92.553,97.181c22.452,41.586 33.678,88.711 33.678,141.374l-0.997,14.544Zm-257.826,-242.185c-38.044,0 -72.346,8.482 -102.906,25.459c-30.435,16.989 -54.883,40.888 -73.219,71.722c-18.336,30.847 -28.938,65.66 -31.682,104.465l415.739,0c-2.121,-38.805 -12.474,-73.443 -31.184,-103.941c-18.71,-30.485 -43.282,-54.397 -73.842,-71.722c-30.435,-17.326 -64.737,-25.983 -102.906,-25.983Z" style="fill:#3f3f3f;fill-rule:nonzero;"/><rect x="13434" y="919.936" width="51.977" height="771.271" style="fill:#3f3f3f;"/><path d="M14163.7,1432.38l-466.756,-0c1.372,42.272 12.224,79.867 32.306,112.785c20.082,32.917 47.274,58.388 81.576,76.4c34.302,18.024 72.97,27.03 115.879,27.03c35.299,-0 68.104,-6.412 98.29,-19.234c30.061,-12.823 55.257,-31.708 75.34,-56.655l30.061,34.302c-23.575,28.415 -53.137,50.243 -88.811,65.486c-35.674,15.255 -74.342,22.876 -115.878,22.876c-54.135,0 -102.282,-11.787 -144.567,-35.35c-42.285,-23.55 -75.34,-56.13 -99.164,-97.704c-23.949,-41.574 -35.924,-89.048 -35.924,-142.41c0,-52.662 11.226,-99.949 33.803,-141.885c22.453,-41.923 53.511,-74.666 93.052,-98.228c39.416,-23.55 83.822,-35.338 132.967,-35.338c49.27,0 93.426,11.613 132.592,34.826c39.167,23.213 69.976,55.607 92.553,97.181c22.452,41.586 33.678,88.711 33.678,141.374l-0.997,14.544Zm-257.826,-242.185c-38.044,0 -72.346,8.482 -102.906,25.459c-30.435,16.989 -54.883,40.888 -73.219,71.722c-18.336,30.847 -28.938,65.66 -31.682,104.465l415.739,0c-2.121,-38.805 -12.474,-73.443 -31.184,-103.941c-18.71,-30.485 -43.282,-54.397 -73.842,-71.722c-30.436,-17.326 -64.737,-25.983 -102.906,-25.983Zm85.318,-252.587l74.841,-0l-163.277,122.651l-56.131,0l144.567,-122.651Z" style="fill:#3f3f3f;fill-rule:nonzero;"/><path d="M14590.9,1144.46c67.856,0 121.616,19.746 161.157,59.249c39.416,39.504 59.249,96.32 59.249,170.475l-0,317.025l-52.014,0l-0,-312.872c-0,-60.982 -15.467,-107.408 -46.277,-139.291c-30.809,-31.869 -73.967,-47.81 -129.349,-47.81c-63.739,-0 -114.007,19.059 -150.804,57.165c-36.672,38.119 -55.008,89.398 -55.008,153.848l0,288.96l-52.014,0l0,-542.595l49.894,-0l-0,117.462c18.71,-38.106 46.65,-67.905 83.697,-89.397c37.046,-21.479 80.827,-32.219 131.469,-32.219Z" style="fill:#3f3f3f;fill-rule:nonzero;"/></g></g></g></g></g></g><defs><linearGradient id="_Linear2" x1="0" y1="0" x2="1" y2="0" gradientUnits="userSpaceOnUse" gradientTransform="matrix(1590.09,3.93999,-3.93998,1590.09,394.592,1131.02)"><stop offset="0" style="stop-color:#ff4773;stop-opacity:1"/><stop offset="0.28" style="stop-color:#744ca0;stop-opacity:1"/><stop offset="0.74" style="stop-color:#524dab;stop-opacity:1"/><stop offset="1" style="stop-color:#194fbe;stop-opacity:1"/></linearGradient><linearGradient id="_Linear3" x1="0" y1="0" x2="1" y2="0" gradientUnits="userSpaceOnUse" gradientTransform="matrix(1590.09,3.93999,-3.93998,1590.09,394.592,1131.02)"><stop offset="0" style="stop-color:#ff4773;stop-opacity:1"/><stop offset="0.37" style="stop-color:#744ca0;stop-opacity:1"/><stop offset="0.6" style="stop-color:#524dab;stop-opacity:1"/><stop offset="1" style="stop-color:#194fbe;stop-opacity:1"/></linearGradient></defs></svg>